<svg xmlns="http://www.w3.org/2000/svg" width="30" height="30" viewBox="245 858 30 30"><g data-name="chat-left-dots"><path d="M271.25 859.962h-22.5c-1.036 0-1.875.878-1.875 1.962v22.729l3.75-3.924a3.668 3.668 0 0 1 2.65-1.15h17.975c1.036 0 1.875-.878 1.875-1.961v-15.694c0-1.084-.84-1.962-1.875-1.962ZM248.75 858c-2.071 0-3.75 1.757-3.75 3.924v25.096c0 .397.229.754.58.906a.907.907 0 0 0 1.02-.214l5.35-5.596a1.834 1.834 0 0 1 1.326-.575h17.974c2.071 0 3.75-1.757 3.75-3.923v-15.694c0-2.167-1.679-3.924-3.75-3.924h-22.5Z" fill="rgba(0,0,0,0.5490196078431373 )" fill-rule="evenodd" data-name="Path 12"/><path d="M255.05 869.842c0 1.243-.739 2.25-1.65 2.25-.911 0-1.65-1.007-1.65-2.25s.739-2.25 1.65-2.25c.911 0 1.65 1.007 1.65 2.25Zm6.6 0c0 1.243-.739 2.25-1.65 2.25-.911 0-1.65-1.007-1.65-2.25s.739-2.25 1.65-2.25c.911 0 1.65 1.007 1.65 2.25Zm6.6 0c0 1.243-.739 2.25-1.65 2.25-.911 0-1.65-1.007-1.65-2.25s.739-2.25 1.65-2.25c.911 0 1.65 1.007 1.65 2.25Z" fill="rgba(0,0,0,0.5490196078431373 )" fill-rule="evenodd" data-name="Path 13"/></g></svg>