<svg xmlns="http://www.w3.org/2000/svg" width="30" height="30" viewBox="350 858 30 30"><g data-name="Home_button"><path d="M379.194 871.044h-.001l-12.24-12.24A2.764 2.764 0 0 0 365 858c-.738 0-1.432.288-1.953.804l-12.232 12.24c-.005 0-.009 0-.013.012a2.765 2.765 0 0 0 .006 3.9c.49.492 1.138.768 1.832.804h.574v9.012a3.236 3.236 0 0 0 3.232 3.228h4.788a.88.88 0 0 0 .879-.876v-7.068c0-.804.662-1.476 1.475-1.476h2.824c.814 0 1.475.672 1.475 1.476v7.068c0 .48.394.876.879.876h4.789a3.237 3.237 0 0 0 3.233-3.228v-9.012h.452c.737 0 1.43-.288 1.953-.804a2.775 2.775 0 0 0 0-3.912Z" fill="#0e1037" fill-rule="evenodd" data-name="Vector_4"/></g></svg>