<svg xmlns="http://www.w3.org/2000/svg" width="25.412" height="31.807" viewBox="363.588 51 25.412 31.807"><g data-name="Icon ionic-ios-notifications-outline"><path d="M378.959 78.593a1.03 1.03 0 0 0-1.01.811c-.08.358-.215.652-.397.867-.104.119-.406.469-1.28.469-.875 0-1.177-.358-1.28-.47-.183-.214-.318-.508-.398-.866a1.03 1.03 0 0 0-1.01-.81c-.667 0-1.152.62-1.009 1.263.398 1.773 1.67 2.95 3.697 2.95s3.299-1.17 3.696-2.95a1.04 1.04 0 0 0-1.01-1.264Z" fill="#0e1037" fill-rule="evenodd" data-name="Path 171"/><path d="M388.681 74.555c-1.224-1.614-3.633-2.56-3.633-9.786 0-7.417-3.275-10.398-6.328-11.114-.286-.071-.493-.167-.493-.469v-.23c0-1.058-.858-1.956-1.908-1.956h-.047c-1.05 0-1.908.898-1.908 1.956v.23c0 .294-.207.398-.493.47-3.06.723-6.328 3.696-6.328 11.113 0 7.226-2.409 8.164-3.633 9.786-.787 1.041-.04 2.528 1.264 2.528h22.267c1.28 0 2.02-1.495 1.24-2.528Zm-3.1.46h-18.539a.349.349 0 0 1-.262-.58 9.63 9.63 0 0 0 1.67-2.655c.762-1.796 1.136-4.094 1.136-7.011 0-2.965.557-5.287 1.662-6.9.985-1.447 2.217-1.996 3.076-2.195.668-.159 1.145-.46 1.479-.834a.629.629 0 0 1 .946-.016c.405.453.954.723 1.494.85.859.2 2.091.748 3.077 2.194 1.105 1.614 1.661 3.936 1.661 6.9 0 2.918.374 5.216 1.137 7.012a9.74 9.74 0 0 0 1.71 2.695c.174.215.031.54-.247.54Z" fill="#0e1037" fill-rule="evenodd" data-name="Path 172"/></g></svg>