<svg xmlns="http://www.w3.org/2000/svg" width="30" height="30" viewBox="47 856 30 30"><g data-name="profile"><path d="M67.455 866.91a5.455 5.455 0 1 1-10.91 0 5.455 5.455 0 0 1 10.91 0Zm-2.728 0a2.727 2.727 0 1 1-5.454 0 2.727 2.727 0 0 1 5.454 0Z" fill="rgba(0,0,0,0.5490196078431373 )" fill-rule="evenodd" data-name="Path 14"/><path d="M62 856c-8.285 0-15 6.715-15 15s6.715 15 15 15 15-6.715 15-15-6.716-15-15-15Zm-12.273 15c0 2.85.972 5.474 2.602 7.557a12.254 12.254 0 0 1 9.76-4.83 12.25 12.25 0 0 1 9.671 4.716A12.273 12.273 0 1 0 49.727 871ZM62 883.273a12.222 12.222 0 0 1-7.735-2.744 9.535 9.535 0 0 1 7.824-4.074 9.533 9.533 0 0 1 7.758 3.981A12.224 12.224 0 0 1 62 883.273Z" fill="rgba(0,0,0,0.5490196078431373 )" fill-rule="evenodd" data-name="Path 15"/></g></svg>