<svg xmlns="http://www.w3.org/2000/svg" width="24.486" height="24.486" viewBox="38.58 54 24.486 24.486"><g data-name="Group 609"><g data-name="Group 161"><path d="M41.64 64.713c0-4.285 3.367-7.652 7.652-7.652 4.286 0 7.652 3.367 7.652 7.652s-3.366 7.652-7.652 7.652c-4.285 0-7.652-3.367-7.652-7.652Zm18.824 13.314c.613.612 1.53.612 2.143 0 .612-.612.612-1.53 0-2.142l-4.744-4.744c1.377-1.837 2.142-3.98 2.142-6.428C60.005 58.744 55.261 54 49.292 54c-5.968 0-10.712 4.744-10.712 10.713 0 5.968 4.744 10.713 10.712 10.713 2.45 0 4.592-.766 6.428-2.143l4.744 4.744Z" fill="#0e1037" fill-rule="evenodd" data-name="Path 2"/></g></g></svg>